<?xml version="1.0" standalone="no"?>
<!DOCTYPE svg PUBLIC "-//W3C//DTD SVG 20010904//EN"
 "http://www.w3.org/TR/2001/REC-SVG-20010904/DTD/svg10.dtd">
<svg version="1.0" xmlns="http://www.w3.org/2000/svg"
 width="881.000000pt" height="186.000000pt" viewBox="0 0 881.000000 186.000000"
 preserveAspectRatio="xMidYMid meet">

<g transform="translate(0.000000,186.000000) scale(0.100000,-0.100000)"
fill="#000000" stroke="none">
<path d="M8282 1809 c-117 -23 -231 -109 -282 -212 -104 -211 -20 -457 190
-556 49 -23 67 -26 170 -26 111 0 117 1 179 33 340 178 286 660 -84 757 -64
16 -106 17 -173 4z m192 -90 c73 -27 148 -96 183 -167 37 -76 40 -201 6 -274
-30 -66 -93 -130 -160 -163 -50 -25 -70 -29 -143 -30 -102 0 -154 20 -229 90
-70 66 -96 128 -96 235 0 105 25 166 94 234 92 90 227 120 345 75z"/>
<path d="M8218 1633 l-28 -4 0 -225 0 -224 55 0 55 0 0 85 c0 68 3 85 15 85 8
0 38 -38 66 -85 l52 -85 64 0 c34 0 63 4 63 8 0 5 -23 42 -51 83 -66 94 -66
95 -31 102 44 9 75 58 75 121 1 62 -22 102 -73 124 -35 15 -207 25 -262 15z
m216 -114 c15 -45 1 -77 -42 -88 -20 -6 -49 -11 -64 -11 -28 0 -28 1 -28 65
l0 66 62 -3 c57 -3 63 -5 72 -29z"/>
<path d="M6870 1159 l0 -243 -27 27 c-71 67 -218 95 -337 63 -119 -32 -227
-147 -278 -293 -19 -57 -23 -88 -23 -188 0 -141 21 -217 86 -315 77 -115 164
-162 309 -168 115 -5 183 16 254 79 l46 41 0 -51 0 -51 140 0 140 0 0 669 0
669 -155 1 -155 2 0 -242z m-97 -413 c130 -54 166 -272 63 -384 -49 -54 -148
-72 -213 -39 -62 33 -113 127 -113 211 0 156 136 266 263 212z"/>
<path d="M197 1333 c-4 -3 -7 -75 -7 -160 l0 -153 -80 0 -80 0 0 -125 0 -125
80 0 80 0 0 -240 c0 -135 5 -261 11 -290 15 -72 62 -129 134 -165 53 -26 72
-30 165 -33 112 -3 236 21 234 46 -1 6 -2 61 -2 122 l-2 110 -26 -10 c-34 -13
-117 -13 -147 1 -41 19 -46 47 -47 256 l-2 198 111 3 111 3 0 124 0 125 -110
0 -110 0 0 160 0 160 -153 0 c-85 0 -157 -3 -160 -7z"/>
<path d="M1075 1006 c-114 -36 -200 -110 -253 -218 -117 -239 -62 -544 124
-677 139 -100 355 -95 471 12 l43 40 0 -52 0 -51 145 0 145 0 0 470 0 470
-145 0 -145 0 0 -46 0 -46 -44 39 c-25 22 -68 47 -97 56 -61 20 -186 21 -244
3z m252 -257 c106 -40 163 -200 113 -317 -64 -150 -239 -173 -325 -44 -79 120
-34 314 85 361 34 13 92 13 127 0z"/>
<path d="M3045 1006 c-68 -21 -139 -62 -190 -109 -202 -182 -208 -529 -13
-719 100 -99 203 -138 361 -138 215 0 375 93 457 265 93 195 54 423 -97 574
-107 106 -200 141 -373 140 -58 0 -123 -6 -145 -13z m222 -257 c106 -40 159
-194 110 -321 -65 -167 -288 -163 -352 6 -27 69 -18 170 20 232 48 78 142 114
222 83z"/>
<path d="M4239 1011 c-42 -13 -71 -32 -121 -79 l-48 -45 0 57 0 56 -150 0
-150 0 0 -470 0 -470 150 0 150 0 0 283 c0 170 4 297 11 321 27 97 141 120
184 36 12 -24 15 -82 15 -335 l0 -305 155 0 155 0 0 303 c0 267 2 306 18 337
32 65 126 65 159 0 9 -18 13 -107 13 -332 l0 -308 150 0 150 0 0 389 c0 429
-2 446 -62 508 -48 49 -103 66 -196 61 -93 -5 -160 -37 -224 -106 -31 -34 -42
-41 -49 -31 -5 8 -9 17 -9 21 0 19 -61 74 -105 94 -52 25 -141 31 -196 15z"/>
<path d="M5453 1001 c-185 -64 -296 -245 -297 -486 -1 -202 95 -370 252 -443
51 -24 69 -27 167 -27 123 0 159 12 235 82 l40 35 0 -51 0 -51 140 0 140 0 0
470 0 470 -140 0 -140 0 0 -46 0 -46 -46 41 c-28 24 -68 47 -97 56 -69 20
-189 19 -254 -4z m287 -263 c67 -34 104 -100 108 -194 7 -123 -45 -206 -144
-233 -102 -27 -196 30 -229 141 -19 65 -19 101 0 164 15 52 70 115 115 133 43
17 103 12 150 -11z"/>
<path d="M7590 1006 c-220 -62 -349 -258 -337 -511 7 -147 40 -229 126 -316
102 -101 204 -139 376 -139 116 0 202 18 283 59 55 28 152 111 152 130 0 5
-24 26 -52 47 -29 21 -68 51 -86 66 l-34 29 -34 -26 c-79 -60 -178 -84 -266
-66 -86 19 -136 63 -158 141 l-9 30 330 0 329 0 0 63 c-1 246 -132 439 -335
492 -70 18 -221 18 -285 1z m242 -238 c40 -23 73 -71 79 -118 l4 -25 -177 -2
c-98 -1 -180 2 -183 6 -3 5 8 33 23 62 21 42 38 59 72 77 59 29 129 29 182 0z"/>
<path d="M1819 983 c5 -10 74 -112 154 -228 l144 -210 -55 -80 c-206 -295
-265 -381 -269 -392 -4 -10 32 -13 165 -13 l169 0 69 104 c38 57 74 112 79
121 9 15 22 -1 86 -101 l74 -119 174 -3 c149 -2 173 0 168 12 -6 15 -251 375
-295 433 -29 39 -47 4 150 286 76 109 138 200 138 202 0 3 -76 5 -169 5 l-169
0 -68 -105 c-38 -58 -71 -105 -74 -105 -3 0 -35 47 -70 105 l-65 105 -173 0
c-161 0 -172 -1 -163 -17z"/>
</g>
</svg>
